<svg xmlns="http://www.w3.org/2000/svg" version="1.1" viewBox="-5.0 -10.0 110.0 135.0">
 <path d="m28.234 30.012c1.8594 0 3.5312-0.75 4.75-1.9688s1.9688-2.8906 1.9688-4.75v-0.76562c0-2.2344-1.8281-4.0625-4.0625-4.0625h38.219c-2.2344 0-4.0625 1.8281-4.0625 4.0625v0.76562c0 3.7188 3.0156 6.7188 6.7188 6.7188 2.125 0 3.8906-1.2656 5.0938-2.875 1.125-1.5156 1.625-3.4062 1.625-5.2969 0-2.5156-1.0156-4.7969-2.6719-6.4531s-3.9375-2.6719-6.4531-2.6719h-38.719c-5.0312 0-9.125 4.0781-9.125 9.125 0 1.8906 0.5 3.7812 1.625 5.2969 1.2031 1.6094 2.9688 2.875 5.0938 2.875z"/>
 <path d="m35.203 30.254c-1.6875 1.6719-3.8438 2.6719-6.1719 2.8594v35.953h41.938v-35.953c-5.0469-0.40625-9.0469-4.6562-9.0469-9.8125v-0.78125c0-0.3125 0.015625-0.625 0.0625-0.92188h-23.969c0.046875 0.29688 0.0625 0.60938 0.0625 0.92188v0.78125c0 2.625-1.0312 5.0938-2.875 6.9531zm24.328 7.7656c0-1.5938 1.2812-2.875 2.875-2.875s2.875 1.2812 2.875 2.875v19.016c0 1.5938-1.2812 2.875-2.875 2.875s-2.875-1.2812-2.875-2.875zm-12.406-3.0625c0-1.5938 1.2812-2.875 2.875-2.875s2.875 1.2812 2.875 2.875v25.141c0 1.5781-1.2812 2.875-2.875 2.875s-2.875-1.2969-2.875-2.875zm-6.6562 3.0625v19.016c0 1.5938-1.2812 2.875-2.875 2.875s-2.875-1.2812-2.875-2.875v-19.016c0-1.5938 1.2812-2.875 2.875-2.875s2.875 1.2812 2.875 2.875z"/>
 <path d="m24.219 78.301h51.562l-2.0195-6.1172h-47.523z"/>
 <path d="m21.746 81.426h56.379v5.8594h-56.379z"/>
<text x="0.0" y="117.5" font-size="5.0" font-weight="bold" font-family="Arbeit Regular, Helvetica, Arial-Unicode, Arial, Sans-serif" fill="#000000">Created by Andre Buand</text><text x="0.0" y="122.5" font-size="5.0" font-weight="bold" font-family="Arbeit Regular, Helvetica, Arial-Unicode, Arial, Sans-serif" fill="#000000">from Noun Project</text></svg>
